# xmcd CD database file
#
# Track frame offsets:
#	150
#	18285
#	36407
#	57540
#	81865
#	104117
#	125012
#	146880
#	166750
#	187482
#	207982
#	228412
#
# Disc length: 3363 seconds
#
# Revision: 0
# Processed by: cddbd v1.5.2PL0 Copyright (c) Steve Scherf et al.
# Submitted via: CDex 1.70beta2
#
DISCID=b90d210c
DTITLE=SalsaVarious - Salsa USA
DYEAR=1900
DGENRE=Salsa
TTITLE0=Guayacan
TTITLE1=A Cali
TTITLE2=Mavi Mavi
TTITLE3=Si Ella Prequnta Por Mi
TTITLE4=Infinito Amor
TTITLE5=Por Poquito Te Pierdo
TTITLE6=Quiereme Mujer
TTITLE7=Amor De Estudiante
TTITLE8=Ya No Lo Dudes
TTITLE9=Amores Que No Se Olvidan
TTITLE10=Mulata
TTITLE11=Con Llanto Y Espina
EXTD=
EXTT0=
EXTT1=
EXTT2=
EXTT3=
EXTT4=
EXTT5=
EXTT6=
EXTT7=
EXTT8=
EXTT9=
EXTT10=
EXTT11=
PLAYORDER=
